<!DOCTYPE svg PUBLIC "-//W3C//DTD SVG 1.1//EN" "http://www.w3.org/Graphics/SVG/1.1/DTD/svg11.dtd">
<!-- Uploaded to: SVG Repo, www.svgrepo.com, Transformed by: SVG Repo Mixer Tools -->
<svg fill="#b7b4b4" version="1.1" id="Layer_1_1_" xmlns="http://www.w3.org/2000/svg" xmlns:xlink="http://www.w3.org/1999/xlink" viewBox="-14.72 -14.72 93.44 93.44" xml:space="preserve" width="205px" height="205px" stroke="#b7b4b4">
<g id="SVGRepo_bgCarrier" stroke-width="0">
<path transform="translate(-14.72, -14.72), scale(2.92)" d="M16,29.27865578038128C18.084696265850646,29.385125392573602,19.93152072350188,27.80205245659552,21.433245666038165,26.352184705338043C22.763615684546547,25.067754692597205,22.68792643006591,22.818512777613783,24.019875656210647,21.53572047067245C25.821745742030885,19.800350203677947,29.286335810965323,19.999450433272948,30.370383890198546,17.744880511613133C31.3708321072249,15.664179017375684,30.69128816522761,12.683070237612133,29.063780750735162,11.045561471575972C27.317169708631514,9.288217162829936,23.647353693676497,11.087811298096655,21.955193028365603,9.27797665519276C19.97756700293373,7.162825201251262,21.872198849088,2.9272652151948693,19.691786670151235,1.0218326922435796C17.796422516503387,-0.634500241540402,14.4903339545106,-0.35448725624880884,12.253483410816786,0.7997846820947387C9.995097508305959,1.965169414913857,9.195414125722724,4.758858800245584,8.051815744022878,7.028354603617123C7.202091714561139,8.71465037820621,7.129126325589301,10.616609119596017,6.424092550832885,12.368337335414449C5.701617000685902,14.163401418505591,3.581693501584118,15.55891543638672,3.8470026179520165,17.4756410442232C4.113302845191306,19.39952693216392,6.46871612600497,20.229535350636645,7.71806072758103,21.71660992420648C8.839836626869138,23.051841544826104,9.562591762894254,24.635809854559742,10.850423232960868,25.811698775177764C12.401073724783982,27.227561623281147,13.90292733117917,29.171554080509733,16,29.27865578038128" fill="#bef0f4" strokewidth="0"/>
</g>
<g id="SVGRepo_tracerCarrier" stroke-linecap="round" stroke-linejoin="round"/>
<g id="SVGRepo_iconCarrier"> <g> </g> <g> <path d="M54.836,41.196c-0.741-0.624-1.72-0.883-2.664-0.719L32.34,43.926l-5.633-5.633C26.52,38.105,26.266,38,26,38H16 c0-0.552-0.447-1-1-1h-4H4v2h6v14H4v2h7h4c0.553,0,1-0.448,1-1h2.764l10.691,5.346c0.463,0.231,0.963,0.347,1.463,0.346 c0.568,0,1.137-0.149,1.646-0.446L54.38,46.52c0.999-0.584,1.62-1.666,1.62-2.823C56,42.73,55.575,41.818,54.836,41.196z M14,53h-2 V39h2V53z M53.371,44.793L31.556,57.518c-0.37,0.216-0.821,0.231-1.206,0.039l-10.902-5.451C19.309,52.036,19.155,52,19,52h-3V40 h9.586l7.879,7.878C33.81,48.224,34,48.683,34,49.171C34,50.18,33.18,51,32.172,51c-0.481,0-0.952-0.195-1.293-0.536l-5.172-5.171 l-1.414,1.414l5.172,5.171C30.188,52.602,31.148,53,32.172,53C34.282,53,36,51.283,36,49.171c0-1.022-0.398-1.983-1.121-2.707 l-0.809-0.809l18.444-3.208c0.372-0.065,0.747,0.038,1.034,0.279C53.835,42.968,54,43.322,54,43.697 C54,44.146,53.759,44.566,53.371,44.793z"/> <rect x="26.567" y="19.5" transform="matrix(0.6727 -0.7399 0.7399 0.6727 -4.0396 31.8682)" width="14.866" height="2.001"/> <path d="M30,20.5c1.654,0,3-1.346,3-3s-1.346-3-3-3s-3,1.346-3,3S28.346,20.5,30,20.5z M30,16.5c0.552,0,1,0.449,1,1s-0.448,1-1,1 s-1-0.449-1-1S29.448,16.5,30,16.5z"/> <path d="M35,23.5c0,1.654,1.346,3,3,3s3-1.346,3-3s-1.346-3-3-3S35,21.846,35,23.5z M39,23.5c0,0.551-0.448,1-1,1s-1-0.449-1-1 s0.448-1,1-1S39,22.949,39,23.5z"/> <path d="M33.274,41.688C33.464,41.887,33.726,42,34,42s0.536-0.113,0.726-0.312L50.584,24.98c4.542-4.786,4.542-12.573,0-17.358 C48.367,5.286,45.416,4,42.274,4C39.148,4,36.212,5.272,34,7.584C31.788,5.272,28.852,4,25.726,4c-3.142,0-6.093,1.286-8.31,3.622 c-4.542,4.786-4.542,12.573,0,17.358L33.274,41.688z M18.867,8.999C20.702,7.065,23.138,6,25.726,6 c2.589,0,5.024,1.065,6.859,2.999l0.689,0.727c0.379,0.397,1.072,0.397,1.451,0l0.689-0.727C37.25,7.065,39.686,6,42.274,6 c2.588,0,5.023,1.065,6.858,2.999c3.822,4.026,3.822,10.578,0,14.604L34,39.547L18.867,23.603 C15.045,19.577,15.045,13.025,18.867,8.999z"/> <rect x="29" y="28" width="2" height="2"/> <rect x="33" y="28" width="2" height="2"/> <rect x="37" y="28" width="2" height="2"/> </g> </g>
</svg>