<!DOCTYPE svg PUBLIC "-//W3C//DTD SVG 1.1//EN" "http://www.w3.org/Graphics/SVG/1.1/DTD/svg11.dtd">
<!-- Uploaded to: SVG Repo, www.svgrepo.com, Transformed by: SVG Repo Mixer Tools -->
<svg fill="#a09c9c" height="800px" width="800px" version="1.1" id="Capa_1" xmlns="http://www.w3.org/2000/svg" xmlns:xlink="http://www.w3.org/1999/xlink" viewBox="-18.6 -18.6 97.20 97.20" xml:space="preserve">
<g id="SVGRepo_bgCarrier" stroke-width="0">
<path transform="translate(-18.6, -18.6), scale(3.0375)" d="M16,30.86386449635029C18.65090406894926,30.82648991896973,18.868775286005345,26.265639497373687,21.223035970469937,25.04656367061375C23.76355194117375,23.731041720211337,28.154706453892384,26.32097521916778,29.57223420949247,23.835933074355125C30.99369680134762,21.34399283961926,26.946180503617583,18.813114836781136,26.383413279429078,16C25.96933293730503,13.930129005419145,27.864677587704676,11.586525657829426,26.761675859754757,9.786743545439098C25.653983638502165,7.979307894771794,22.744477921186316,8.532032644497944,21.036842862144116,7.275932253025756C19.01860547915993,5.79135933246733,18.427604261816786,2.4903397174555346,16,1.8706813934259117C13.638573280938441,1.2679152234747368,11.433149433975657,3.2352371883862796,9.22198235872202,4.26012907070837C6.81067364302581,5.377788046435505,3.9458825804690774,5.98287160002358,2.4253090490825944,8.162648525321849C0.8809134587155165,10.376574916862403,0.7244873838489305,13.318250174967913,1.0324576464481652,15.999999999999996C1.3234984477639709,18.53433111177208,2.265823987066519,21.10377917775252,4.113452758627325,22.862701249541708C5.827583623891233,24.49453479708969,8.727921660993486,23.87348854216971,10.691235719015818,25.195049460071452C12.876071508256102,26.66572277354096,13.366559492673424,30.900992858395163,16,30.86386449635029" fill="#a3e0f5" strokewidth="0"/>
</g>
<g id="SVGRepo_tracerCarrier" stroke-linecap="round" stroke-linejoin="round"/>
<g id="SVGRepo_iconCarrier"> <path d="M55.517,46.55l-9.773-4.233c-0.23-0.115-0.485-0.396-0.704-0.771l6.525-0.005c0.114,0.011,2.804,0.257,4.961-0.67 c0.817-0.352,1.425-1.047,1.669-1.907c0.246-0.868,0.09-1.787-0.426-2.523c-1.865-2.654-6.218-9.589-6.354-16.623 c-0.003-0.121-0.397-12.083-12.21-12.18c-1.739,0.014-3.347,0.309-4.81,0.853c-0.319-0.813-0.789-1.661-1.488-2.459 C30.854,3.688,27.521,2.5,23,2.5s-7.854,1.188-9.908,3.53c-2.368,2.701-2.148,5.976-2.092,6.525v5.319c-0.64,0.729-1,1.662-1,2.625 v4c0,1.217,0.553,2.352,1.497,3.109c0.916,3.627,2.833,6.36,3.503,7.237v3.309c0,0.968-0.528,1.856-1.377,2.32l-8.921,4.866 C1.801,46.924,0,49.958,0,53.262V57.5h44h2h14v-3.697C60,50.711,58.282,47.933,55.517,46.55z M44,55.5H2v-2.238 c0-2.571,1.402-4.934,3.659-6.164l8.921-4.866C16.073,41.417,17,39.854,17,38.155v-4.019l-0.233-0.278 c-0.024-0.029-2.475-2.994-3.41-7.065l-0.091-0.396l-0.341-0.22C12.346,25.803,12,25.176,12,24.5v-4c0-0.561,0.238-1.084,0.67-1.475 L13,18.728V12.5l-0.009-0.131c-0.003-0.027-0.343-2.799,1.605-5.021C16.253,5.458,19.081,4.5,23,4.5 c3.905,0,6.727,0.951,8.386,2.828c0.825,0.932,1.24,1.973,1.447,2.867c0.016,0.07,0.031,0.139,0.045,0.208 c0.014,0.071,0.029,0.142,0.04,0.21c0.013,0.078,0.024,0.152,0.035,0.226c0.008,0.053,0.016,0.107,0.022,0.158 c0.015,0.124,0.027,0.244,0.035,0.355c0.001,0.009,0.001,0.017,0.001,0.026c0.007,0.108,0.012,0.21,0.015,0.303 c0,0.018,0,0.033,0.001,0.051c0.002,0.083,0.002,0.162,0.001,0.231c0,0.01,0,0.02,0,0.03c-0.004,0.235-0.02,0.375-0.02,0.378 L33,18.728l0.33,0.298C33.762,19.416,34,19.939,34,20.5v4c0,0.873-0.572,1.637-1.422,1.899l-0.498,0.153l-0.16,0.495 c-0.669,2.081-1.622,4.003-2.834,5.713c-0.297,0.421-0.586,0.794-0.837,1.079L28,34.123v4.125c0,0.253,0.025,0.501,0.064,0.745 c0.008,0.052,0.022,0.102,0.032,0.154c0.039,0.201,0.091,0.398,0.155,0.59c0.015,0.045,0.031,0.088,0.048,0.133 c0.078,0.209,0.169,0.411,0.275,0.605c0.012,0.022,0.023,0.045,0.035,0.067c0.145,0.256,0.312,0.499,0.504,0.723l0.228,0.281h0.039 c0.343,0.338,0.737,0.632,1.185,0.856l9.553,4.776C42.513,48.374,44,50.78,44,53.457V55.5z M58,55.5H46v-2.043 c0-3.439-1.911-6.53-4.986-8.068l-6.858-3.43c0.169-0.386,0.191-0.828,0.043-1.254c-0.245-0.705-0.885-1.16-1.63-1.16h-2.217 c-0.046-0.081-0.076-0.17-0.113-0.256c-0.05-0.115-0.109-0.228-0.142-0.349C30.036,38.718,30,38.486,30,38.248v-3.381 c0.229-0.28,0.47-0.599,0.719-0.951c1.239-1.75,2.232-3.698,2.954-5.799C35.084,27.47,36,26.075,36,24.5v-4 c0-0.963-0.36-1.896-1-2.625v-5.319c0.026-0.25,0.082-1.069-0.084-2.139c1.288-0.506,2.731-0.767,4.29-0.78 c9.841,0.081,10.2,9.811,10.21,10.221c0.147,7.583,4.746,14.927,6.717,17.732c0.169,0.24,0.22,0.542,0.139,0.827 c-0.046,0.164-0.178,0.462-0.535,0.615c-1.68,0.723-3.959,0.518-4.076,0.513h-6.883c-0.643,0-1.229,0.327-1.568,0.874 c-0.338,0.545-0.37,1.211-0.086,1.783c0.313,0.631,0.866,1.474,1.775,1.927l9.747,4.222C56.715,49.396,58,51.482,58,53.803V55.5z"/> </g>
</svg>