<!DOCTYPE svg PUBLIC "-//W3C//DTD SVG 1.1//EN" "http://www.w3.org/Graphics/SVG/1.1/DTD/svg11.dtd">
<!-- Uploaded to: SVG Repo, www.svgrepo.com, Transformed by: SVG Repo Mixer Tools -->
<svg width="800px" height="800px" viewBox="-12.16 -12.16 88.32 88.32" xmlns="http://www.w3.org/2000/svg" stroke-width="3" stroke="#a19b9b" fill="none">
<g id="SVGRepo_bgCarrier" stroke-width="0">
<path transform="translate(-12.16, -12.16), scale(2.76)" d="M16,30.97054865397513C18.170339413832718,30.306744960169485,19.466925538438744,28.16542922621616,21.099111226453772,26.588413565233466C22.338697318457942,25.390727116576834,23.100968659459003,23.792109320828594,24.48828356406393,22.769180259628875C26.447517067390635,21.324550146035634,29.617859682690945,21.485333160360955,30.859562500982243,19.391598173141773C32.01392117927422,17.445141165122795,31.064543694322346,14.880377550167239,30.46013000212114,12.699569688182626C29.86963145894558,10.56896960075272,29.180684594362006,8.219236597826946,27.399950805099035,6.908842598364984C25.617992995274886,5.597547875163034,22.967468934246718,6.630207144402872,20.95707501793825,5.706527660837024C18.99641489820934,4.805698469031272,18.084348506685473,2.22894103084272,16,1.6711125262081623C13.880534624819042,1.1038857898587775,11.577361064145693,1.7612795153674137,9.576118886738914,2.660673419276433C7.554423936097416,3.5692591640196163,5.104468081903889,4.700882240507335,4.508309842827671,6.835682906373213C3.849699740560493,9.194119295753065,6.5381620081365375,11.374965119668664,6.459138507428513,13.822360624260291C6.40012834584393,15.649933471493945,4.556773845932348,16.933627412915396,4.124888761738841,18.71041664779024C3.544654442291884,21.0975194448768,2.52910351199336,23.708732248642757,3.508422885242428,25.961700334191598C4.460591033388448,28.152205810185627,6.922402631577619,29.357408791605742,9.139321939297925,30.24634478804225C11.30082148432916,31.11305867571877,13.773040767808855,31.65166965968572,16,30.97054865397513" fill="#7ed0ec" strokewidth="0"/>
</g>
<g id="SVGRepo_tracerCarrier" stroke-linecap="round" stroke-linejoin="round"/>
<g id="SVGRepo_iconCarrier">
<path d="M28.79,44l-9.4-9.4S31.76,5.41,56.77,7C56.77,7,60.25,30.12,28.79,44Z"/>
<path d="M56,16.82a10.87,10.87,0,0,1-6-3.08,11,11,0,0,1-3.11-6.15"/>
<circle cx="42.32" cy="21.44" r="5.48"/>
<path d="M30.61,43.16,30,47.84a.24.24,0,0,0,.33.25l8-3.47A2.32,2.32,0,0,0,39.63,43l1.22-5.83"/>
<path d="M20,33.29l-4.69.6a.23.23,0,0,1-.24-.32l3.46-7.95a2.33,2.33,0,0,1,1.67-1.35l5.82-1.22"/>
<path d="M21.49,36.68c-6.55,2.1-6.88,12.47-6.88,12.47s10.08.11,12.59-6.76"/>
<line x1="10.88" y1="52.82" x2="7.12" y2="56.59" stroke-linecap="round"/>
<line x1="10.6" y1="45.63" x2="7.41" y2="48.81" stroke-linecap="round"/>
<line x1="17.94" y1="53.11" x2="14.76" y2="56.3" stroke-linecap="round"/>
</g>
</svg>