<!DOCTYPE svg PUBLIC "-//W3C//DTD SVG 1.1//EN" "http://www.w3.org/Graphics/SVG/1.1/DTD/svg11.dtd">
<!-- Uploaded to: SVG Repo, www.svgrepo.com, Transformed by: SVG Repo Mixer Tools -->
<svg width="800px" height="800px" viewBox="-4.8 -4.8 33.60 33.60" fill="none" xmlns="http://www.w3.org/2000/svg">
<g id="SVGRepo_bgCarrier" stroke-width="0">
<path transform="translate(-4.8, -4.8), scale(1.05)" d="M16,25.79040101347001C18.15444338417556,25.377155737279864,20.41163309824507,28.02507633290436,22.353922259944834,27.005316181567316C24.274903926445333,25.99674310523305,23.63877291287022,22.906267288384665,24.881146510292666,21.127532328429975C26.293627382192057,19.10525085663497,29.451218933978318,18.39525654096518,30.040685360172862,16C30.62229936555928,13.636651234384313,29.718466772374335,10.700624911022643,27.822863439971577,9.174066610340228C25.863006701513143,7.595764060908741,22.71325702587637,9.394206324327548,20.45626603802176,8.281520810102654C18.433606447037825,7.2843595280209845,18.027731540601643,4.332259368507769,16,3.3454527801981087C13.556286549355654,2.1562063317647637,10.48164156014171,1.0137087429686542,8.061038946732882,2.2493160964308156C5.661262144675444,3.4742928220050926,4.655590208467972,6.604789318666135,4.366894256459174,9.283623267455315C4.1099551027725765,11.667783221481415,6.904692677691644,13.624236856388574,6.579137919568701,15.999999999999998C6.168188259893608,18.998939597642277,2.0430660682473563,20.86094469718093,2.3680420866465646,23.87041457085624C2.6659697009190597,26.629400246493475,5.31562863542719,29.359338723525507,8.063531989427766,29.74636582695618C11.041295230662303,30.165767433741035,13.046684101563281,26.356878579364952,16,25.79040101347001" fill="#9edff5" strokewidth="0"/>
</g>
<g id="SVGRepo_tracerCarrier" stroke-linecap="round" stroke-linejoin="round"/>
<g id="SVGRepo_iconCarrier">
<path d="M17 10C17 11.7279 15.0424 14.9907 13.577 17.3543C12.8967 18.4514 12.5566 19 12 19C11.4434 19 11.1033 18.4514 10.423 17.3543C8.95763 14.9907 7 11.7279 7 10C7 7.23858 9.23858 5 12 5C14.7614 5 17 7.23858 17 10Z" stroke="#a09c9c" stroke-linecap="round" stroke-linejoin="round"/>
<path d="M14.5 10C14.5 11.3807 13.3807 12.5 12 12.5C10.6193 12.5 9.5 11.3807 9.5 10C9.5 8.61929 10.6193 7.5 12 7.5C13.3807 7.5 14.5 8.61929 14.5 10Z" stroke="#a09c9c" stroke-linecap="round" stroke-linejoin="round"/>
</g>
</svg>