<!DOCTYPE svg PUBLIC "-//W3C//DTD SVG 1.1//EN" "http://www.w3.org/Graphics/SVG/1.1/DTD/svg11.dtd">
<!-- Uploaded to: SVG Repo, www.svgrepo.com, Transformed by: SVG Repo Mixer Tools -->
<svg fill="#a3a3a3" width="800px" height="800px" viewBox="-10.24 -10.24 52.48 52.48" xmlns="http://www.w3.org/2000/svg">
<g id="SVGRepo_bgCarrier" stroke-width="0">
<path transform="translate(-10.24, -10.24), scale(1.64)" d="M16,30.29126800224185C18.20061680871915,30.89635669484319,20.597586402391737,29.614183605154317,22.434128595383307,28.25920779795591C24.18561280536379,26.96698661171254,24.75610367527048,24.688558553105196,26.007634701032448,22.907771473316494C27.270813378893322,21.110411102142564,30.092147534744456,19.86893535536026,29.866555745958248,17.683704699136285C29.620965353246387,15.304754392852564,26.03181682601543,14.737907539581329,24.944326154634233,12.607864525832861C24.027275165569684,10.81165780524817,25.4665219658956,8.295616369840522,24.251615952336437,6.685851021152812C23.06161508511338,5.1090852964100115,20.715834016361562,5.10445764875255,18.832216795810464,4.509244761494001C16.83635571510317,3.8785634195241134,14.678150296397718,2.120694241058939,12.813394883863978,3.0714348260857633C10.797224056193436,4.099374157608592,11.229261682152849,7.270764922814285,9.868746973361972,9.079245998967696C8.851925215097879,10.430868951486842,7.051234928423611,10.903043231729164,5.953599611717291,12.189902899826222C4.547926113190825,13.837904293581106,2.597187317129922,15.464104761248034,2.5752776647309883,17.63005641015653C2.5537393206813106,19.759301135710793,4.241675588378822,21.60785567756375,5.844148284933853,23.01007829125984C7.311249137420063,24.293845556905936,9.604361633284942,24.0312369667706,11.188717313989503,25.167133256371635C13.120938391519811,26.552429992063942,13.70757625512494,29.66093577848588,16,30.29126800224185" fill="#97dbf2" strokewidth="0"/>
</g>
<g id="SVGRepo_tracerCarrier" stroke-linecap="round" stroke-linejoin="round"/>
<g id="SVGRepo_iconCarrier">
<path d="M 0 6 L 0 8 L 19 8 L 19 23 L 12.84375 23 C 12.398438 21.28125 10.851563 20 9 20 C 7.148438 20 5.601563 21.28125 5.15625 23 L 4 23 L 4 18 L 2 18 L 2 25 L 5.15625 25 C 5.601563 26.71875 7.148438 28 9 28 C 10.851563 28 12.398438 26.71875 12.84375 25 L 21.15625 25 C 21.601563 26.71875 23.148438 28 25 28 C 26.851563 28 28.398438 26.71875 28.84375 25 L 32 25 L 32 16.84375 L 31.9375 16.6875 L 29.9375 10.6875 L 29.71875 10 L 21 10 L 21 6 Z M 1 10 L 1 12 L 10 12 L 10 10 Z M 21 12 L 28.28125 12 L 30 17.125 L 30 23 L 28.84375 23 C 28.398438 21.28125 26.851563 20 25 20 C 23.148438 20 21.601563 21.28125 21.15625 23 L 21 23 Z M 2 14 L 2 16 L 8 16 L 8 14 Z M 9 22 C 10.117188 22 11 22.882813 11 24 C 11 25.117188 10.117188 26 9 26 C 7.882813 26 7 25.117188 7 24 C 7 22.882813 7.882813 22 9 22 Z M 25 22 C 26.117188 22 27 22.882813 27 24 C 27 25.117188 26.117188 26 25 26 C 23.882813 26 23 25.117188 23 24 C 23 22.882813 23.882813 22 25 22 Z"/>
</g>
</svg>